<svg width="24" height="24" viewBox="0 0 24 24" fill="none" xmlns="http://www.w3.org/2000/svg">
<path d="M12 2C17.5228 2 22 6.47715 22 12C22 17.5228 17.5228 22 12 22C6.47717 22 2 17.5228 2 12C2 6.47716 6.47716 2.00001 12 2ZM10.0685 16.9556H13.8904V15.615H11.5607V10.804H10.0685V16.9556ZM16.2078 8.25793C14.6578 8.25793 13.4015 9.51735 13.4015 11.0689C13.4015 12.6205 14.6578 13.8799 16.2078 13.8799C17.7577 13.8799 19.0155 12.622 19.0155 11.0689C19.0155 9.51579 17.7593 8.25794 16.2078 8.25793ZM15.2077 10.0673C15.7608 9.51263 16.6578 9.51263 17.2109 10.0673C17.764 10.622 17.764 11.5173 17.2109 12.072C16.6578 12.6267 15.7624 12.6267 15.2077 12.072C14.6546 11.5189 14.6546 10.6204 15.2077 10.0673ZM5.29681 12.2361H8.65466V10.6688H5.29681V12.2361Z" fill="#ffffff" fill-opacity="0.9"/>
</svg>
